<svg width="69" height="100" viewBox="0 0 69 100" fill="none" xmlns="http://www.w3.org/2000/svg">
<path d="M57.7763 40.9021V40.8831C57.7761 40.8761 57.7761 40.8691 57.7763 40.8619C57.2172 37.1632 55.7666 33.756 53.8424 30.6913C53.6002 30.3038 53.3485 29.9229 53.0911 29.5445C52.9662 29.361 52.8398 29.1791 52.711 28.9989C50.2366 25.5123 42.4207 16.0332 38.3147 11.0909C36.7614 9.22063 35.7393 8 35.7393 8C35.2761 8.37684 34.8235 8.76569 34.3813 9.16656L34.366 9.18048C31.1638 12.2194 28.5086 15.8023 26.5194 19.768L26.5131 19.7803C26.1301 20.5449 25.7724 21.3231 25.44 22.115C24.671 23.9496 24.0458 25.8429 23.5706 27.7774C23.2823 28.9466 23.0488 30.1366 22.8701 31.3468C21.8874 31.1835 20.8949 31.0887 19.8994 31.0633C19.7112 31.0584 19.5229 31.0559 19.3346 31.0559C17.708 31.0546 16.0863 31.2388 14.5001 31.6048C13.5291 33.1967 12.7474 34.9001 12.1715 36.6791C11.393 39.0866 10.9976 41.6049 11 44.1388C11 55.7208 19.1281 65.3769 29.9091 67.5438C31.421 67.8479 32.9586 68.0006 34.5 68C34.8042 68 35.1068 67.9934 35.4085 67.9827C36.2009 67.9511 36.9821 67.8813 37.7523 67.7731C39.5472 67.5204 41.3072 67.057 42.9967 66.3918C43.447 66.2149 43.8903 66.0237 44.3264 65.8185C52.3949 62.0409 58 53.7538 58 44.1388C57.9967 43.056 57.9221 41.9746 57.7763 40.9021ZM26.9149 62.3481C24.601 61.3557 22.499 59.9164 20.7256 58.1104C18.9474 56.3098 17.5302 54.176 16.5527 51.827C15.5387 49.3936 15.0189 46.7776 15.0245 44.1355C15.0188 41.493 15.5386 38.8767 16.5527 36.4431C16.714 36.0521 16.8886 35.6681 17.0763 35.2913C17.8222 35.1964 18.5732 35.1487 19.325 35.1487C20.3824 35.1487 21.4379 35.2434 22.4789 35.4321C22.4563 35.9656 22.445 36.5038 22.445 37.0436C22.4307 47.0874 26.3312 56.7291 33.2945 63.863C31.0984 63.7317 28.9407 63.2193 26.9149 62.3481ZM35.548 60.3338C35.0759 59.8243 34.6216 59.3016 34.1853 58.7659C32.0941 56.2099 30.3851 53.3551 29.1135 50.2935C27.3661 46.1006 26.4702 41.5929 26.4792 37.0403C26.4792 36.9163 26.4792 36.7926 26.4792 36.6691C28.4781 37.5695 30.2956 38.8377 31.8399 40.4097C34.2339 42.8276 35.8916 45.8942 36.6146 49.2434C36.8881 50.5159 37.0256 51.8148 37.0245 53.1173C37.0321 55.6002 36.5313 58.0578 35.5537 60.3338H35.548ZM53.977 44.8194C53.8537 48.5352 52.6988 52.1402 50.6456 55.2185C48.9769 57.7186 46.7696 59.8002 44.1908 61.3054L44.165 61.293C43.4873 61.6873 42.7868 62.0397 42.0673 62.3481C41.171 62.7334 40.2471 63.049 39.3038 63.2928C39.1361 63.3364 38.9677 63.3775 38.7988 63.4157C38.7077 63.4369 38.6172 63.4574 38.5261 63.4764C38.5615 63.4107 38.5963 63.3428 38.6302 63.2755C38.6827 63.1731 38.7343 63.0707 38.7843 62.9675C39.4002 61.7168 39.8963 60.4088 40.2656 59.0615C40.7957 57.1277 41.0636 55.1295 41.062 53.1223C41.0626 51.6619 40.9213 50.2052 40.6399 48.7731C39.1448 41.1823 33.815 34.9988 26.7891 32.3887C27.1127 29.9743 27.6935 27.6028 28.5212 25.3157C28.7068 24.804 28.9045 24.2958 29.1143 23.7912C29.4307 23.0309 29.7727 22.2854 30.1407 21.5547C30.1427 21.551 30.1448 21.5472 30.1462 21.5432C30.2971 21.2246 30.4528 20.9108 30.6142 20.5979C31.8808 18.1493 33.4773 15.8919 35.3577 13.891L35.3892 13.9295C37.0561 15.9365 39.287 18.6367 41.5089 21.3573C42.6457 22.7499 43.7803 24.1483 44.8356 25.4632C46.8148 27.9298 48.5156 30.1023 49.4346 31.3926C49.566 31.5778 49.6943 31.7621 49.8201 31.949C51.1401 33.8945 52.16 35.8615 52.8515 37.8071C53.2911 39.0338 53.6081 40.3024 53.7978 41.5935V41.6098C53.9532 42.672 54.0138 43.7463 53.9786 44.8194H53.977Z" fill="#89BCD9"/>
<path d="M1.872 80.986H9.594V82.66H3.618V86.818H8.856V88.474H3.618V94H1.872V80.986ZM11.7412 86.548H13.4152V94H11.7412V86.548ZM11.6152 83.848C11.6152 83.584 11.7172 83.362 11.9212 83.182C12.1372 83.002 12.3712 82.912 12.6232 82.912C12.8752 82.912 13.0972 83.002 13.2892 83.182C13.4932 83.362 13.5952 83.584 13.5952 83.848C13.5952 84.124 13.4932 84.352 13.2892 84.532C13.0972 84.7 12.8752 84.784 12.6232 84.784C12.3712 84.784 12.1372 84.694 11.9212 84.514C11.7172 84.334 11.6152 84.112 11.6152 83.848ZM17.8055 86.548L17.9675 88.708L17.8775 88.42C18.0695 87.964 18.3455 87.58 18.7055 87.268C19.0775 86.944 19.4615 86.698 19.8575 86.53C20.2655 86.35 20.6195 86.26 20.9195 86.26L20.8295 87.916C20.2655 87.88 19.7675 87.988 19.3355 88.24C18.9155 88.492 18.5795 88.828 18.3275 89.248C18.0875 89.668 17.9675 90.118 17.9675 90.598V94H16.3115V86.548H17.8055ZM26.2187 94.18C25.3667 94.18 24.6347 94.012 24.0227 93.676C23.4107 93.328 22.9367 92.86 22.6007 92.272C22.2767 91.672 22.1147 90.988 22.1147 90.22C22.1147 89.488 22.3007 88.822 22.6727 88.222C23.0447 87.622 23.5427 87.142 24.1667 86.782C24.7907 86.422 25.4867 86.242 26.2547 86.242C27.2387 86.242 28.0547 86.53 28.7027 87.106C29.3507 87.682 29.7887 88.474 30.0167 89.482L23.8787 91.642L23.4827 90.652L28.5227 88.816L28.1627 89.05C28.0187 88.654 27.7787 88.312 27.4427 88.024C27.1067 87.724 26.6687 87.574 26.1287 87.574C25.6727 87.574 25.2647 87.688 24.9047 87.916C24.5447 88.132 24.2627 88.432 24.0587 88.816C23.8547 89.2 23.7527 89.638 23.7527 90.13C23.7527 90.646 23.8607 91.102 24.0767 91.498C24.2927 91.882 24.5867 92.188 24.9587 92.416C25.3427 92.632 25.7747 92.74 26.2547 92.74C26.5787 92.74 26.8907 92.68 27.1907 92.56C27.5027 92.44 27.7907 92.284 28.0547 92.092L28.8287 93.334C28.4567 93.586 28.0367 93.79 27.5687 93.946C27.1127 94.102 26.6627 94.18 26.2187 94.18ZM36.6503 94.18C35.9663 94.18 35.3603 94.03 34.8323 93.73C34.3163 93.43 33.9023 93.052 33.5903 92.596L33.7883 92.074V94H32.1143V80.068H33.7703V88.258L33.7163 87.628C34.0163 87.22 34.4423 86.89 34.9943 86.638C35.5583 86.374 36.1823 86.242 36.8663 86.242C37.5383 86.242 38.1503 86.404 38.7023 86.728C39.2543 87.052 39.6923 87.508 40.0163 88.096C40.3523 88.672 40.5203 89.362 40.5203 90.166C40.5203 91.006 40.3403 91.726 39.9803 92.326C39.6323 92.926 39.1643 93.388 38.5763 93.712C37.9883 94.024 37.3463 94.18 36.6503 94.18ZM36.3083 92.758C36.7883 92.758 37.2203 92.644 37.6043 92.416C37.9883 92.188 38.2883 91.882 38.5043 91.498C38.7203 91.102 38.8283 90.652 38.8283 90.148C38.8283 89.668 38.7143 89.236 38.4863 88.852C38.2703 88.456 37.9703 88.144 37.5863 87.916C37.2143 87.688 36.7883 87.574 36.3083 87.574C35.9003 87.574 35.5223 87.652 35.1743 87.808C34.8263 87.964 34.5323 88.18 34.2923 88.456C34.0523 88.72 33.8843 89.032 33.7883 89.392V90.886C33.8843 91.246 34.0463 91.57 34.2743 91.858C34.5023 92.134 34.7903 92.356 35.1383 92.524C35.4863 92.68 35.8763 92.758 36.3083 92.758ZM45.8802 94.18C45.1842 94.18 44.5482 94.03 43.9722 93.73C43.4082 93.43 42.9582 92.992 42.6222 92.416C42.2982 91.828 42.1362 91.114 42.1362 90.274C42.1362 89.446 42.3102 88.732 42.6582 88.132C43.0062 87.52 43.4682 87.052 44.0442 86.728C44.6322 86.404 45.2742 86.242 45.9702 86.242C46.6662 86.242 47.2542 86.404 47.7342 86.728C48.2142 87.04 48.5802 87.412 48.8322 87.844L48.7242 88.132L48.8862 86.548H50.4342V94H48.7602V92.056L48.9402 92.488C48.8922 92.608 48.7842 92.764 48.6162 92.956C48.4602 93.136 48.2442 93.322 47.9682 93.514C47.7042 93.706 47.3982 93.868 47.0502 94C46.7022 94.12 46.3122 94.18 45.8802 94.18ZM46.3302 92.794C46.7502 92.794 47.1282 92.716 47.4642 92.56C47.8002 92.404 48.0762 92.188 48.2922 91.912C48.5202 91.624 48.6762 91.282 48.7602 90.886V89.428C48.6642 89.068 48.4962 88.756 48.2562 88.492C48.0162 88.216 47.7282 88.006 47.3922 87.862C47.0562 87.706 46.6842 87.628 46.2762 87.628C45.8322 87.628 45.4242 87.736 45.0522 87.952C44.6802 88.168 44.3802 88.468 44.1522 88.852C43.9362 89.236 43.8282 89.686 43.8282 90.202C43.8282 90.682 43.9422 91.12 44.1702 91.516C44.3982 91.912 44.7042 92.224 45.0882 92.452C45.4722 92.68 45.8862 92.794 46.3302 92.794ZM55.419 94.144C54.891 94.144 54.375 94.054 53.871 93.874C53.379 93.682 52.971 93.4 52.647 93.028L53.349 92.056C53.661 92.356 53.979 92.584 54.303 92.74C54.639 92.884 54.969 92.956 55.293 92.956C55.533 92.956 55.755 92.926 55.959 92.866C56.163 92.806 56.325 92.71 56.445 92.578C56.577 92.434 56.643 92.242 56.643 92.002C56.643 91.738 56.553 91.528 56.373 91.372C56.205 91.216 55.983 91.09 55.707 90.994C55.443 90.898 55.161 90.808 54.861 90.724C54.249 90.52 53.781 90.238 53.457 89.878C53.133 89.518 52.971 89.08 52.971 88.564C52.971 88.168 53.067 87.802 53.259 87.466C53.463 87.118 53.757 86.836 54.141 86.62C54.537 86.404 55.023 86.296 55.599 86.296C56.115 86.296 56.577 86.362 56.985 86.494C57.393 86.614 57.777 86.818 58.137 87.106L57.471 88.15C57.255 87.922 56.997 87.754 56.697 87.646C56.397 87.538 56.127 87.478 55.887 87.466C55.683 87.454 55.485 87.484 55.293 87.556C55.113 87.628 54.963 87.73 54.843 87.862C54.723 87.994 54.663 88.15 54.663 88.33C54.663 88.582 54.747 88.786 54.915 88.942C55.083 89.098 55.299 89.224 55.563 89.32C55.839 89.404 56.109 89.494 56.373 89.59C56.745 89.698 57.075 89.842 57.363 90.022C57.651 90.202 57.879 90.424 58.047 90.688C58.227 90.952 58.317 91.282 58.317 91.678C58.317 92.122 58.209 92.536 57.993 92.92C57.789 93.292 57.471 93.592 57.039 93.82C56.619 94.036 56.079 94.144 55.419 94.144ZM64.1171 94.18C63.2651 94.18 62.5331 94.012 61.9211 93.676C61.3091 93.328 60.8351 92.86 60.4991 92.272C60.1751 91.672 60.0131 90.988 60.0131 90.22C60.0131 89.488 60.1991 88.822 60.5711 88.222C60.9431 87.622 61.4411 87.142 62.0651 86.782C62.6891 86.422 63.3851 86.242 64.1531 86.242C65.1371 86.242 65.9531 86.53 66.6011 87.106C67.2491 87.682 67.6871 88.474 67.9151 89.482L61.7771 91.642L61.3811 90.652L66.4211 88.816L66.0611 89.05C65.9171 88.654 65.6771 88.312 65.3411 88.024C65.0051 87.724 64.5671 87.574 64.0271 87.574C63.5711 87.574 63.1631 87.688 62.8031 87.916C62.4431 88.132 62.1611 88.432 61.9571 88.816C61.7531 89.2 61.6511 89.638 61.6511 90.13C61.6511 90.646 61.7591 91.102 61.9751 91.498C62.1911 91.882 62.4851 92.188 62.8571 92.416C63.2411 92.632 63.6731 92.74 64.1531 92.74C64.4771 92.74 64.7891 92.68 65.0891 92.56C65.4011 92.44 65.6891 92.284 65.9531 92.092L66.7271 93.334C66.3551 93.586 65.9351 93.79 65.4671 93.946C65.0111 94.102 64.5611 94.18 64.1171 94.18Z" fill="#89BCD9"/>
</svg>
